{
    "accessors": [
        {
            "bufferView": 3,
            "byteOffset": 0,
            "componentType": 5126,
            "count": 3617,
            "max": [
                0.9982999563217163,
                1.0
            ],
            "min": [
                0.0,
                0.002499997615814209
            ],
            "name": "accessor_buffer_body-male1591.002_TEXCOORD_1_0",
            "type": "VEC2"
        },
        {
            "bufferView": 5,
            "byteOffset": 0,
            "componentType": 5123,
            "count": 8832,
            "max": [
                3616
            ],
            "min": [
                4
            ],
            "name": "accessor_buffer_body-male1591.002_1",
            "type": "SCALAR"
        },
        {
            "bufferView": 0,
            "byteOffset": 0,
            "componentType": 5126,
            "count": 3617,
            "max": [
                3.4509999752044678,
                11.349100112915039,
                2.2886998653411865
            ],
            "min": [
                -3.452899932861328,
                -0.007899999618530273,
                -0.5891000032424927
            ],
            "name": "accessor_buffer_body-male1591.002_POSITION_0",
            "type": "VEC3"
        },
        {
            "bufferView": 2,
            "byteOffset": 0,
            "componentType": 5126,
            "count": 3617,
            "max": [
                0.9921000003814697,
                1.0
            ],
            "min": [
                0.0,
                0.027100026607513428
            ],
            "name": "accessor_buffer_body-male1591.002_TEXCOORD_0_0",
            "type": "VEC2"
        },
        {
            "bufferView": 4,
            "byteOffset": 0,
            "componentType": 5123,
            "count": 9960,
            "max": [
                3615
            ],
            "min": [
                0
            ],
            "name": "accessor_buffer_body-male1591.002_0",
            "type": "SCALAR"
        },
        {
            "bufferView": 1,
            "byteOffset": 0,
            "componentType": 5126,
            "count": 3617,
            "max": [
                0.999847412109375,
                0.9983214735984802,
                0.99981689453125
            ],
            "min": [
                -0.999847412109375,
                -0.999237060546875,
                -0.99993896484375
            ],
            "name": "accessor_buffer_body-male1591.002_NORMAL_0",
            "type": "VEC3"
        }
    ],
    "asset": {
        "version": "2.0"
    },
    "bufferViews": [
        {
            "buffer": 0,
            "byteLength": 43404,
            "byteOffset": 0,
            "byteStride": 12,
            "name": "bufferView_buffer_body-male1591.002_POSITION_0",
            "target": 34962
        },
        {
            "buffer": 0,
            "byteLength": 43404,
            "byteOffset": 43404,
            "byteStride": 12,
            "name": "bufferView_buffer_body-male1591.002_NORMAL_0",
            "target": 34962
        },
        {
            "buffer": 0,
            "byteLength": 28936,
            "byteOffset": 86808,
            "byteStride": 8,
            "name": "bufferView_buffer_body-male1591.002_TEXCOORD_0_0",
            "target": 34962
        },
        {
            "buffer": 0,
            "byteLength": 28936,
            "byteOffset": 115744,
            "byteStride": 8,
            "name": "bufferView_buffer_body-male1591.002_TEXCOORD_1_0",
            "target": 34962
        },
        {
            "buffer": 0,
            "byteLength": 19920,
            "byteOffset": 144680,
            "name": "bufferView_buffer_body-male1591.002_0",
            "target": 34963
        },
        {
            "buffer": 0,
            "byteLength": 17664,
            "byteOffset": 164600,
            "name": "bufferView_buffer_body-male1591.002_1",
            "target": 34963
        }
    ],
    "buffers": [
        {
            "byteLength": 182264,
            "name": "buffer_body1",
            "uri": "data:application/octet-stream;base64,"
        }
    ],
    "materials": [
        {
            "emissiveFactor": [
                0.0,
                0.0,
                0.0
            ],
            "name": "DefaultSkin.006",
            "pbrMetallicRoughness": {
                "baseColorFactor": [
                    1.0,
                    1.0,
                    1.0,
                    1.0
                ],
                "metallicFactor": 0.0,
                "roughnessFactor": 1.0
            }
        },
        {
            "emissiveFactor": [
                0.0,
                0.0,
                0.0
            ],
            "name": "shoes01.006",
            "pbrMetallicRoughness": {
                "baseColorFactor": [
                    1.0,
                    1.0,
                    1.0,
                    1.0
                ],
                "metallicFactor": 0.0,
                "roughnessFactor": 1.0
            }
        }
    ],
    "meshes": [
        {
            "name": "body-male1591.002",
            "primitives": [
                {
                    "attributes": {
                        "NORMAL": 5,
                        "POSITION": 2,
                        "TEXCOORD_0": 3,
                        "TEXCOORD_1": 0
                    },
                    "indices": 4,
                    "material": 1,
                    "mode": 4
                },
                {
                    "attributes": {
                        "NORMAL": 5,
                        "POSITION": 2,
                        "TEXCOORD_0": 3,
                        "TEXCOORD_1": 0
                    },
                    "indices": 1,
                    "material": 0,
                    "mode": 4
                }
            ]
        }
    ],
    "nodes": [
        {
            "mesh": 0,
            "name": "body",
            "rotation": [
                0.7071068286895752,
                0.0,
                0.0,
                0.7071067094802856
            ],
            "scale": [
                1.0,
                1.0,
                1.0
            ],
            "translation": [
                0.0,
                0.0,
                0.0
            ]
        },
        {
            "children": [
                0
            ],
            "matrix": [
                1.0,
                0.0,
                0.0,
                0.0,
                0.0,
                0.0,
                -1.0,
                0.0,
                0.0,
                1.0,
                0.0,
                0.0,
                0.0,
                0.0,
                0.0,
                1.0
            ],
            "name": "Scene_root"
        }
    ],
    "scene": 0,
    "scenes": [
        {
            "extras": {
                "background_color": [
                    0.05087608844041824,
                    0.05087608844041824,
                    0.05087608844041824
                ],
                "frames_per_second": 24
            },
            "name": "Scene",
            "nodes": [
                1
            ]
        }
    ]
}
