{
    "accessors" : [
        {
            "bufferView" : 0,
            "componentType" : 5123,
            "count" : 8184,
            "max" : [
                1694
            ],
            "min" : [
                0
            ],
            "type" : "SCALAR"
        },
        {
            "bufferView" : 1,
            "componentType" : 5126,
            "count" : 1695,
            "max" : [
                3.451000213623047,
                11.40890884399414,
                2.288701057434082
            ],
            "min" : [
                -3.452899932861328,
                0.6762080192565918,
                -0.589099109172821
            ],
            "type" : "VEC3"
        },
        {
            "bufferView" : 2,
            "componentType" : 5126,
            "count" : 1695,
            "max" : [
                0.999603271484375,
                0.999359130859375,
                0.999969482421875
            ],
            "min" : [
                -0.999603271484375,
                -0.9980773329734802,
                -0.9986571669578552
            ],
            "type" : "VEC3"
        },
        {
            "bufferView" : 3,
            "componentType" : 5126,
            "count" : 1695,
            "max" : [
                0.9999977350234985,
                0.9993743300437927,
                0.9955992698669434,
                1.0
            ],
            "min" : [
                -0.9999200701713562,
                -0.9998558759689331,
                -0.995783269405365,
                -1.0
            ],
            "type" : "VEC4"
        },
        {
            "bufferView" : 4,
            "componentType" : 5123,
            "count" : 1695,
            "max" : [
                13,
                14,
                12,
                12
            ],
            "min" : [
                0,
                0,
                0,
                0
            ],
            "type" : "VEC4"
        },
        {
            "bufferView" : 5,
            "componentType" : 5126,
            "count" : 1695,
            "max" : [
                0.9999780654907227,
                0.9699586629867554,
                0.9301806688308716,
                0.8401212692260742
            ],
            "min" : [
                0.0004373602569103241,
                0.0,
                0.0,
                0.0
            ],
            "type" : "VEC4"
        },
        {
            "bufferView" : 6,
            "componentType" : 5123,
            "count" : 1695,
            "max" : [
                12,
                12,
                0,
                0
            ],
            "min" : [
                0,
                0,
                0,
                0
            ],
            "type" : "VEC4"
        },
        {
            "bufferView" : 7,
            "componentType" : 5126,
            "count" : 1695,
            "max" : [
                0.48927444219589233,
                0.2006012499332428,
                0.0,
                0.0
            ],
            "min" : [
                0.0,
                0.0,
                0.0,
                0.0
            ],
            "type" : "VEC4"
        },
        {
            "bufferView" : 8,
            "componentType" : 5123,
            "count" : 7728,
            "max" : [
                1461
            ],
            "min" : [
                0
            ],
            "type" : "SCALAR"
        },
        {
            "bufferView" : 9,
            "componentType" : 5126,
            "count" : 1462,
            "max" : [
                1.6857997179031372,
                0.8727083206176758,
                1.290200114250183
            ],
            "min" : [
                -1.6857999563217163,
                0.051908016204833984,
                -0.32840004563331604
            ],
            "type" : "VEC3"
        },
        {
            "bufferView" : 10,
            "componentType" : 5126,
            "count" : 1462,
            "max" : [
                0.99993896484375,
                0.9909970164299011,
                0.9986876845359802
            ],
            "min" : [
                -0.99993896484375,
                -0.9982299208641052,
                -0.9963682889938354
            ],
            "type" : "VEC3"
        },
        {
            "bufferView" : 11,
            "componentType" : 5126,
            "count" : 1462,
            "max" : [
                1.0,
                0.0,
                -0.0,
                -1.0
            ],
            "min" : [
                1.0,
                0.0,
                -0.0,
                -1.0
            ],
            "type" : "VEC4"
        },
        {
            "bufferView" : 12,
            "componentType" : 5123,
            "count" : 1462,
            "max" : [
                14,
                14,
                0,
                0
            ],
            "min" : [
                0,
                0,
                0,
                0
            ],
            "type" : "VEC4"
        },
        {
            "bufferView" : 13,
            "componentType" : 5126,
            "count" : 1462,
            "max" : [
                0.9999790191650391,
                0.9742298722267151,
                0.0,
                0.0
            ],
            "min" : [
                0.0,
                0.0,
                0.0,
                0.0
            ],
            "type" : "VEC4"
        },
        {
            "bufferView" : 14,
            "componentType" : 5123,
            "count" : 1462,
            "max" : [
                0,
                0,
                0,
                0
            ],
            "min" : [
                0,
                0,
                0,
                0
            ],
            "type" : "VEC4"
        },
        {
            "bufferView" : 15,
            "componentType" : 5126,
            "count" : 1462,
            "max" : [
                0.0,
                0.0,
                0.0,
                0.0
            ],
            "min" : [
                0.0,
                0.0,
                0.0,
                0.0
            ],
            "type" : "VEC4"
        },
        {
            "bufferView" : 16,
            "componentType" : 5126,
            "count" : 15,
            "max" : [
                1.0,
                1.0,
                0.9945904612541199,
                0.0,
                0.5173120498657227,
                0.9999999403953552,
                0.9999999403953552,
                0.0,
                1.0000001192092896,
                0.9712087512016296,
                1.0,
                0.0,
                6.827845573425293,
                5.86095666885376,
                3.948540210723877,
                1.0
            ],
            "min" : [
                -0.9980586767196655,
                -0.30994635820388794,
                -0.9949818253517151,
                0.0,
                -0.9048902988433838,
                -0.9901955127716064,
                -0.42799967527389526,
                0.0,
                -0.4667295515537262,
                -0.0939098447561264,
                -0.8117855191230774,
                0.0,
                -3.613938570022583,
                -9.758745193481445,
                -9.451310157775879,
                1.0
            ],
            "type" : "MAT4"
        }
    ],
    "asset" : {
        "copyright" : "2019",
        "generator" : "Khronos Blender glTF 2.0 exporter",
        "version" : "2.0"
    },
    "bufferViews" : [
        {
            "buffer" : 0,
            "byteLength" : 16368,
            "byteOffset" : 0,
            "target" : 34963
        },
        {
            "buffer" : 0,
            "byteLength" : 20340,
            "byteOffset" : 16368,
            "target" : 34962
        },
        {
            "buffer" : 0,
            "byteLength" : 20340,
            "byteOffset" : 36708,
            "target" : 34962
        },
        {
            "buffer" : 0,
            "byteLength" : 27120,
            "byteOffset" : 57048,
            "target" : 34962
        },
        {
            "buffer" : 0,
            "byteLength" : 13560,
            "byteOffset" : 84168,
            "target" : 34962
        },
        {
            "buffer" : 0,
            "byteLength" : 27120,
            "byteOffset" : 97728,
            "target" : 34962
        },
        {
            "buffer" : 0,
            "byteLength" : 13560,
            "byteOffset" : 124848,
            "target" : 34962
        },
        {
            "buffer" : 0,
            "byteLength" : 27120,
            "byteOffset" : 138408,
            "target" : 34962
        },
        {
            "buffer" : 0,
            "byteLength" : 15456,
            "byteOffset" : 165528,
            "target" : 34963
        },
        {
            "buffer" : 0,
            "byteLength" : 17544,
            "byteOffset" : 180984,
            "target" : 34962
        },
        {
            "buffer" : 0,
            "byteLength" : 17544,
            "byteOffset" : 198528,
            "target" : 34962
        },
        {
            "buffer" : 0,
            "byteLength" : 23392,
            "byteOffset" : 216072,
            "target" : 34962
        },
        {
            "buffer" : 0,
            "byteLength" : 11696,
            "byteOffset" : 239464,
            "target" : 34962
        },
        {
            "buffer" : 0,
            "byteLength" : 23392,
            "byteOffset" : 251160,
            "target" : 34962
        },
        {
            "buffer" : 0,
            "byteLength" : 11696,
            "byteOffset" : 274552,
            "target" : 34962
        },
        {
            "buffer" : 0,
            "byteLength" : 23392,
            "byteOffset" : 286248,
            "target" : 34962
        },
        {
            "buffer" : 0,
            "byteLength" : 960,
            "byteOffset" : 309640
        }
    ],
    "buffers" : [
        {
            "byteLength" : 310600,
            "uri" : "data:application/octet-stream;base64,"
        }
    ],
    "materials" : [
        {
            "name" : "DefaultSkin_006",
            "pbrMetallicRoughness" : {
                "metallicFactor" : 0.0
            }
        },
        {
            "name" : "shoes01_006",
            "pbrMetallicRoughness" : {
                "metallicFactor" : 0.0
            }
        }
    ],
    "meshes" : [
        {
            "name" : "body-mesh",
            "primitives" : [
                {
                    "attributes" : {
                        "JOINTS_0" : 4,
                        "JOINTS_1" : 6,
                        "NORMAL" : 2,
                        "POSITION" : 1,
                        "TANGENT" : 3,
                        "WEIGHTS_0" : 5,
                        "WEIGHTS_1" : 7
                    },
                    "indices" : 0,
                    "material" : 0
                },
                {
                    "attributes" : {
                        "JOINTS_0" : 12,
                        "JOINTS_1" : 14,
                        "NORMAL" : 10,
                        "POSITION" : 9,
                        "TANGENT" : 11,
                        "WEIGHTS_0" : 13,
                        "WEIGHTS_1" : 15
                    },
                    "indices" : 8,
                    "material" : 1
                }
            ]
        }
    ],
    "nodes" : [
        {
            "children" : [
                1,
                2,
                13
            ],
            "name" : "Armature",
            "translation" : [
                0.0,
                5.844435214996338,
                -0.0
            ]
        },
        {
            "mesh" : 0,
            "name" : "body",
            "scale" : [
                1.0,
                0.9999998807907104,
                1.0
            ],
            "skin" : 0,
            "translation" : [
                0.0,
                -5.844435214996338,
                -0.0
            ]
        },
        {
            "children" : [
                3
            ],
            "name" : "Armature_spine",
            "rotation" : [
                -0.00011757823813240975,
                0.0,
                0.0,
                1.0
            ]
        },
        {
            "children" : [
                4,
                9
            ],
            "name" : "Armature_chest",
            "rotation" : [
                0.00016696416423656046,
                -1.3001931620237883e-06,
                -0.0018629985861480236,
                0.9999982714653015
            ],
            "translation" : [
                0.0,
                1.0,
                0.0
            ]
        },
        {
            "children" : [
                5
            ],
            "name" : "Armature_shoulderL",
            "rotation" : [
                -0.5719233751296997,
                -0.4158739447593689,
                -0.5718805193901062,
                0.4158187508583069
            ],
            "scale" : [
                0.9999998807907104,
                0.9999998807907104,
                0.9999999403953552
            ],
            "translation" : [
                -1.1223880136412845e-07,
                2.3813016414642334,
                1.3566475200177397e-11
            ]
        },
        {
            "children" : [
                6
            ],
            "name" : "Armature_armL",
            "rotation" : [
                -0.255080908536911,
                5.1919638366371146e-08,
                7.040636518240717e-09,
                0.9669197201728821
            ],
            "scale" : [
                1.0,
                0.9999998211860657,
                1.0
            ],
            "translation" : [
                5.668814586311504e-15,
                1.103102684020996,
                5.880423259441159e-08
            ]
        },
        {
            "children" : [
                7,
                8
            ],
            "name" : "Armature_foreamrL",
            "rotation" : [
                0.016362974420189857,
                0.006319500505924225,
                -0.3602167069911957,
                0.9327037334442139
            ],
            "scale" : [
                1.0,
                0.9999999403953552,
                1.0
            ],
            "translation" : [
                5.0079664859481454e-09,
                1.2940140962600708,
                1.9351391322697253e-10
            ]
        },
        {
            "name" : "Armature_thumbL",
            "rotation" : [
                0.12242410331964493,
                0.715411901473999,
                -0.41880810260772705,
                0.5457087159156799
            ],
            "scale" : [
                0.9999998807907104,
                0.9999998807907104,
                0.9999998807907104
            ],
            "translation" : [
                -2.0517115117968387e-08,
                1.90025794506073,
                1.0850618537006085e-07
            ]
        },
        {
            "name" : "Armature_fingersL",
            "rotation" : [
                -0.08051467686891556,
                -0.06449174880981445,
                0.036533255130052567,
                0.9939938187599182
            ],
            "scale" : [
                1.0,
                0.9999998807907104,
                0.9999998807907104
            ],
            "translation" : [
                -3.7999864588300625e-08,
                1.9002574682235718,
                -2.8945169816552152e-08
            ]
        },
        {
            "children" : [
                10,
                11,
                12
            ],
            "name" : "Armature_neck",
            "rotation" : [
                0.2193160355091095,
                -0.0022149719297885895,
                0.030265919864177704,
                0.9751818180084229
            ],
            "scale" : [
                0.9999998807907104,
                0.9999998807907104,
                1.0
            ],
            "translation" : [
                5.958429305508162e-10,
                2.3813014030456543,
                -1.0219596191518576e-07
            ]
        },
        {
            "name" : "Armature_head",
            "rotation" : [
                -0.1485935002565384,
                0.002064181724563241,
                -0.017983868718147278,
                0.9887326955795288
            ],
            "scale" : [
                1.0,
                1.0,
                1.0000001192092896
            ],
            "translation" : [
                -9.162739900148154e-09,
                0.660460352897644,
                1.0170195707814855e-07
            ]
        },
        {
            "name" : "Armature_mouth",
            "rotation" : [
                0.0438755638897419,
                0.9016319513320923,
                0.42846035957336426,
                0.039455149322748184
            ],
            "scale" : [
                0.9999998211860657,
                0.9999995827674866,
                1.000000238418579
            ],
            "translation" : [
                2.3856490116713758e-09,
                0.6604607701301575,
                -1.7647407446474972e-07
            ]
        },
        {
            "name" : "Armature_eyeL",
            "rotation" : [
                -0.12031201273202896,
                0.9830502867698669,
                0.04719814658164978,
                0.1300368458032608
            ],
            "scale" : [
                0.9999999403953552,
                0.9999995827674866,
                1.0
            ],
            "translation" : [
                6.05359673500061e-09,
                0.6604605913162231,
                -2.533488441258669e-08
            ]
        },
        {
            "children" : [
                14
            ],
            "name" : "Armature_hipL",
            "rotation" : [
                -0.5,
                -0.5,
                -0.5,
                0.5
            ]
        },
        {
            "children" : [
                15
            ],
            "name" : "Armature_thighL",
            "rotation" : [
                -0.6602650880813599,
                -0.037486299872398376,
                -0.042436446994543076,
                0.7488951683044434
            ],
            "scale" : [
                1.0,
                1.0000001192092896,
                0.9999999403953552
            ],
            "translation" : [
                0.0,
                0.6642557382583618,
                0.0
            ]
        },
        {
            "children" : [
                16
            ],
            "name" : "Armature_legL",
            "rotation" : [
                -0.01077885553240776,
                -8.150450594257563e-05,
                0.10348597168922424,
                0.9945725202560425
            ],
            "scale" : [
                1.0,
                1.0000001192092896,
                1.0000001192092896
            ],
            "translation" : [
                2.6945400577460532e-08,
                2.3971331119537354,
                -7.406611501892257e-08
            ]
        },
        {
            "name" : "Armature_footL",
            "rotation" : [
                0.573621928691864,
                0.8139321208000183,
                -0.05300724133849144,
                0.07525079697370529
            ],
            "scale" : [
                0.9999997615814209,
                1.0000001192092896,
                0.9999997615814209
            ],
            "translation" : [
                2.414626862901059e-07,
                2.886026382446289,
                6.163892862787179e-08
            ]
        }
    ],
    "scene" : 0,
    "scenes" : [
        {
            "name" : "Scene",
            "nodes" : [
                0
            ]
        }
    ],
    "skins" : [
        {
            "inverseBindMatrices" : 16,
            "joints" : [
                2,
                3,
                4,
                5,
                6,
                7,
                8,
                9,
                10,
                11,
                12,
                13,
                14,
                15,
                16
            ],
            "skeleton" : 0
        }
    ]
}
