{
    "accessors" : [
        {
            "bufferView" : 0,
            "componentType" : 5123,
            "count" : 8184,
            "max" : [
                1694
            ],
            "min" : [
                0
            ],
            "type" : "SCALAR"
        },
        {
            "bufferView" : 1,
            "componentType" : 5126,
            "count" : 1695,
            "max" : [
                3.451000213623047,
                11.408909797668457,
                2.288701057434082
            ],
            "min" : [
                -3.452899932861328,
                0.6762086153030396,
                -0.589099109172821
            ],
            "type" : "VEC3"
        },
        {
            "bufferView" : 2,
            "componentType" : 5126,
            "count" : 1695,
            "max" : [
                0.999603271484375,
                0.999359130859375,
                0.999969482421875
            ],
            "min" : [
                -0.999603271484375,
                -0.9980773329734802,
                -0.9986571669578552
            ],
            "type" : "VEC3"
        },
        {
            "bufferView" : 3,
            "componentType" : 5123,
            "count" : 7728,
            "max" : [
                1461
            ],
            "min" : [
                0
            ],
            "type" : "SCALAR"
        },
        {
            "bufferView" : 4,
            "componentType" : 5126,
            "count" : 1462,
            "max" : [
                1.6857999563217163,
                0.8727086186408997,
                1.2901999950408936
            ],
            "min" : [
                -1.6857999563217163,
                0.05190848931670189,
                -0.32839998602867126
            ],
            "type" : "VEC3"
        },
        {
            "bufferView" : 5,
            "componentType" : 5126,
            "count" : 1462,
            "max" : [
                0.99993896484375,
                0.9909970164299011,
                0.9986876845359802
            ],
            "min" : [
                -0.99993896484375,
                -0.9982299208641052,
                -0.9963682889938354
            ],
            "type" : "VEC3"
        }
    ],
    "asset" : {
        "generator" : "Khronos Blender glTF 2.0 exporter",
        "version" : "2.0"
    },
    "bufferViews" : [
        {
            "buffer" : 0,
            "byteLength" : 16368,
            "byteOffset" : 0,
            "target" : 34963
        },
        {
            "buffer" : 0,
            "byteLength" : 20340,
            "byteOffset" : 16368,
            "target" : 34962
        },
        {
            "buffer" : 0,
            "byteLength" : 20340,
            "byteOffset" : 36708,
            "target" : 34962
        },
        {
            "buffer" : 0,
            "byteLength" : 15456,
            "byteOffset" : 57048,
            "target" : 34963
        },
        {
            "buffer" : 0,
            "byteLength" : 17544,
            "byteOffset" : 72504,
            "target" : 34962
        },
        {
            "buffer" : 0,
            "byteLength" : 17544,
            "byteOffset" : 90048,
            "target" : 34962
        }
    ],
    "buffers" : [
        {
            "byteLength" : 107592,
            "uri" : "data:application/octet-stream;base64,"
        }
    ],
    "materials" : [
        {
            "name" : "DefaultSkin_006",
            "pbrMetallicRoughness" : {
                "metallicFactor" : 0.0
            }
        },
        {
            "name" : "shoes01_006",
            "pbrMetallicRoughness" : {
                "metallicFactor" : 0.0
            }
        }
    ],
    "meshes" : [
        {
            "name" : "body-mesh",
            "primitives" : [
                {
                    "attributes" : {
                        "NORMAL" : 2,
                        "POSITION" : 1
                    },
                    "indices" : 0,
                    "material" : 0
                },
                {
                    "attributes" : {
                        "NORMAL" : 5,
                        "POSITION" : 4
                    },
                    "indices" : 3,
                    "material" : 1
                }
            ]
        }
    ],
    "nodes" : [
        {
            "name" : "Armature",
            "translation" : [
                0.0,
                5.844435214996338,
                -0.0
            ]
        },
        {
            "mesh" : 0,
            "name" : "body"
        }
    ],
    "scene" : 0,
    "scenes" : [
        {
            "name" : "Scene",
            "nodes" : [
                0,
                1
            ]
        }
    ]
}
