{
    "accessors": [
        {
            "bufferView": 0,
            "byteOffset": 0,
            "componentType": 5126,
            "count": 72,
            "max": [
                1.0,
                1.0000003576278687,
                7.987067699432373
            ],
            "min": [
                -1.0000001192092896,
                -1.0,
                0.0
            ],
            "name": "accessor_buffer_Cube_POSITION_0",
            "type": "VEC3"
        },
        {
            "bufferView": 1,
            "byteOffset": 0,
            "componentType": 5126,
            "count": 72,
            "max": [
                0.9920067191123962,
                0.9920023679733276,
                0.12621726095676422
            ],
            "min": [
                -0.9921718239784241,
                -0.9922531247138977,
                -1.0
            ],
            "name": "accessor_buffer_Cube_NORMAL_0",
            "type": "VEC3"
        },
        {
            "bufferView": 3,
            "byteOffset": 0,
            "componentType": 5121,
            "count": 72,
            "max": [
                3,
                3,
                0,
                0
            ],
            "min": [
                0,
                0,
                0,
                0
            ],
            "name": "accessor_buffer_Cube_skin_0",
            "type": "VEC4"
        },
        {
            "bufferView": 3,
            "byteOffset": 16,
            "componentType": 5126,
            "count": 72,
            "max": [
                1.0170024633407593,
                0.19611069560050964,
                0,
                0
            ],
            "min": [
                0.8030375838279724,
                0.0,
                0.0,
                0.0
            ],
            "name": "accessor_buffer_Cube_skin_1",
            "type": "VEC4"
        },
        {
            "bufferView": 4,
            "byteOffset": 0,
            "componentType": 5126,
            "count": 4,
            "max": [
                0.9999284148216248,
                0.01930936798453331,
                0.4999803602695465,
                0,
                0.499996155500412,
                0.006230148021131754,
                0.8660053014755249,
                0,
                0.011968398466706276,
                0.9999739527702332,
                0.005648015066981316,
                0,
                0.0712486281991005,
                0.391695499420166,
                0.06369879096746445,
                1.0
            ],
            "min": [
                -0.8660279512405396,
                -0.011968539096415043,
                -0.4999831020832062,
                0.0,
                -0.4999958276748657,
                -0.009111820720136166,
                -0.9999839067459106,
                0.0,
                -0.01947825402021408,
                0.9997718930244446,
                -0.008744855411350727,
                0.0,
                -5.587698748144021e-09,
                -5.924046039581299,
                0.002212496241554618,
                1.0
            ],
            "name": "accessor_buffer_IBM_Cube_skin_0",
            "type": "MAT4"
        },
        {
            "bufferView": 2,
            "byteOffset": 0,
            "componentType": 5123,
            "count": 108,
            "max": [
                71
            ],
            "min": [
                0
            ],
            "name": "accessor_buffer_Cube_0",
            "type": "SCALAR"
        }
    ],
    "asset": {
        "version": "2.0"
    },
    "bufferViews": [
        {
            "buffer": 0,
            "byteLength": 864,
            "byteOffset": 0,
            "byteStride": 12,
            "name": "bufferView_buffer_Cube_POSITION_0",
            "target": 34962
        },
        {
            "buffer": 0,
            "byteLength": 864,
            "byteOffset": 864,
            "byteStride": 12,
            "name": "bufferView_buffer_Cube_NORMAL_0",
            "target": 34962
        },
        {
            "buffer": 0,
            "byteLength": 216,
            "byteOffset": 1728,
            "name": "bufferView_buffer_Cube_0",
            "target": 34963
        },
        {
            "buffer": 0,
            "byteLength": 2304,
            "byteOffset": 1944,
            "byteStride": 32,
            "name": "bufferView_buffer_Cube_skin_0",
            "target": 34962
        },
        {
            "buffer": 0,
            "byteLength": 256,
            "byteOffset": 4248,
            "byteStride": 64,
            "name": "bufferView_buffer_IBM_Cube_skin_0"
        }
    ],
    "buffers": [
        {
            "byteLength": 4504,
            "name": "buffer_cube",
            "uri": "data:application/octet-stream;base64,"
        }
    ],
    "materials": [
        {
            "emissiveFactor": [
                0.0,
                0.0,
                0.0
            ],
            "name": "Material",
            "pbrMetallicRoughness": {
                "baseColorFactor": [
                    0.64000004529953,
                    0.64000004529953,
                    0.64000004529953,
                    1.0
                ],
                "metallicFactor": 0.0,
                "roughnessFactor": 1.0
            }
        }
    ],
    "meshes": [
        {
            "name": "Cube",
            "primitives": [
                {
                    "attributes": {
                        "JOINTS_0": 2,
                        "NORMAL": 1,
                        "POSITION": 0,
                        "WEIGHTS_0": 3
                    },
                    "indices": 5,
                    "material": 0,
                    "mode": 4
                }
            ]
        }
    ],
    "nodes": [
        {
            "children": [
                1,
                2
            ],
            "name": "Armature",
            "rotation": [
                0.0,
                0.0,
                0.0,
                1.0
            ],
            "scale": [
                1.0,
                1.0,
                1.0
            ],
            "translation": [
                0.0,
                0.0,
                0.0
            ]
        },
        {
            "mesh": 0,
            "name": "Cube",
            "rotation": [
                0.0,
                0.0,
                0.0,
                1.0
            ],
            "scale": [
                1.0,
                1.0,
                1.0
            ],
            "skin": 0,
            "translation": [
                0.0,
                0.0,
                0.0
            ]
        },
        {
            "children": [
                3
            ],
            "name": "Armature_Bone",
            "rotation": [
                0.7050945162773132,
                -0.00422291224822402,
                0.0042402599938213825,
                0.709088146686554
            ],
            "scale": [
                0.9999998807907104,
                1.0,
                1.0000001192092896
            ],
            "translation": [
                0.0,
                0.0,
                -0.39172983169555664
            ]
        },
        {
            "children": [
                4
            ],
            "name": "Armature_Bone.001",
            "rotation": [
                0.007231732830405235,
                -0.009468507021665573,
                -0.015708088874816895,
                0.9998056888580322
            ],
            "scale": [
                0.9999998807907104,
                0.9999999403953552,
                0.9999999403953552
            ],
            "translation": [
                -2.3471216081816237e-09,
                2.5003581047058105,
                -4.959872512699803e-10
            ]
        },
        {
            "children": [
                5
            ],
            "name": "Armature_Bone.002",
            "rotation": [
                0.009175630286335945,
                -0.9633497595787048,
                0.010287735611200333,
                0.2678939700126648
            ],
            "scale": [
                0.9999999403953552,
                0.9999999403953552,
                0.9999998807907104
            ],
            "translation": [
                -2.7333690866271354e-12,
                1.5497989654541016,
                7.3090276053733305e-09
            ]
        },
        {
            "name": "Armature_Bone.003",
            "rotation": [
                -1.4149073024327663e-09,
                0.9999711513519287,
                -0.007596905343234539,
                -1.8615986618897296e-07
            ],
            "scale": [
                1.0,
                1.0000003576278687,
                1.0
            ],
            "translation": [
                1.0226228752685529e-09,
                2.2665722370147705,
                4.190951585769653e-09
            ]
        },
        {
            "children": [
                0
            ],
            "matrix": [
                -1.0,
                0.0,
                0.0,
                0.0,
                0.0,
                0.0,
                1.0,
                0.0,
                0.0,
                1.0,
                0.0,
                0.0,
                0.0,
                0.0,
                0.0,
                1.0
            ],
            "name": "Scene_root"
        }
    ],
    "scene": 0,
    "scenes": [
        {
            "extras": {
                "background_color": [
                    0.05087608844041824,
                    0.05087608844041824,
                    0.05087608844041824
                ],
                "frames_per_second": 24
            },
            "name": "Scene",
            "nodes": [
                6
            ]
        }
    ],
    "skins": [
        {
            "inverseBindMatrices": 4,
            "joints": [
                2,
                3,
                4,
                5
            ],
            "name": "Cube",
            "skeleton": 2
        }
    ]
}
