<?xml version="1.0" encoding="UTF-8" standalone="no"?>
<!-- Created with Inkscape (http://www.inkscape.org/) -->

<svg
   width="1255.4845mm"
   height="814.10895mm"
   viewBox="0 0 1255.4845 814.10895"
   version="1.1"
   id="svg1"
   xml:space="preserve"
   xmlns="http://www.w3.org/2000/svg"
   xmlns:svg="http://www.w3.org/2000/svg"><defs
     id="defs1" /><g
     id="layer1"
     transform="translate(984.4043,52.387499)"><path
       id="path28-8"
       style="vector-effect:non-scaling-stroke;fill:#0000ff;fill-opacity:0;stroke:#0000ff;stroke-width:0.264583;stroke-dasharray:none;-inkscape-stroke:hairline;paint-order:stroke fill markers"
       d="m -144.07042,228.10294 c -0.88264,0.1537 -1.63201,0.8434 -1.9513,1.75649 -1.76015,5.03368 -6.17007,8.82153 -11.56157,9.679 -1.27375,0.20257 -3.38279,0.20247 -4.65656,0 -5.33364,-0.84784 -9.70909,-4.56198 -11.50783,-9.51364 -0.44035,-1.21222 -1.64495,-2.04087 -2.89956,-1.73633 -0.39529,0.096 -0.78975,0.19516 -1.18339,0.29766 -1.24938,0.32533 -1.92912,1.6205 -1.53014,2.84841 l 7.06158,21.73356 c 0.39899,1.2279 1.0892,3.48215 0.28009,4.41471 -0.44073,0.50797 -1.27591,0.75567 -1.5968,0.8599 -2.69926,-0.88316 -3.18634,-2.45404 -3.58531,-3.68195 l -7.07761,-21.78316 c -0.39897,-1.22792 -1.71679,-1.89602 -2.92798,-1.44901 -0.38797,0.14318 -0.77464,0.28953 -1.16014,0.43925 -1.20347,0.46739 -1.68857,1.8219 -1.31774,3.05718 1.53277,5.1059 0.19134,10.76009 -3.66541,14.62185 -0.91141,0.91258 -2.61768,2.15245 -3.76722,2.7373 -4.82951,2.4571 -10.57424,2.01178 -14.94534,-0.96429 -1.06608,-0.72585 -2.51495,-0.6817 -3.33779,0.31316 -0.25999,0.31434 -0.51734,0.63119 -0.77205,0.94982 -0.80616,1.00842 -0.58357,2.46364 0.46095,3.22254 l 18.46711,13.41779 c 1.04452,0.7589 2.92732,2.17697 2.82102,3.40705 -0.0579,0.67016 -0.58784,1.36125 -0.786,1.63402 -2.70302,0.87218 -4.02029,-0.11237 -5.06481,-0.87127 l -18.45317,-13.40749 c -1.04452,-0.75889 -2.49191,-0.51665 -3.19465,0.56638 -0.22089,0.34041 -0.43902,0.68278 -0.65423,1.02681 -0.68471,1.09452 -0.27511,2.49354 0.74156,3.28714 4.15201,3.24098 6.33177,8.54883 5.49014,13.88241 -0.20104,1.27401 -0.85297,3.27934 -1.4392,4.42818 -2.46431,4.82929 -7.37747,7.84636 -12.66648,8.00473 -1.28916,0.0386 -2.45307,0.92378 -2.55594,2.21073 -0.0327,0.40934 -0.062,0.81852 -0.0878,1.22835 -0.0813,1.2885 0.93668,2.33528 2.22779,2.33528 h 22.93668 c 1.29111,0 3.64821,0.0404 4.28501,1.09813 0.34691,0.57622 0.32402,1.44733 0.32402,1.78439 -1.67392,2.29449 -3.31792,2.27171 -4.60903,2.27171 h -22.93668 c -1.29111,0 -2.30906,1.04678 -2.22779,2.33527 0.0258,0.40984 0.0551,0.81902 0.0878,1.22836 0.10287,1.28695 1.26678,2.17212 2.55594,2.21073 5.28901,0.15838 10.20217,3.17544 12.66648,8.00472 0.58623,1.14884 1.23816,3.15417 1.4392,4.42818 0.84162,5.33358 -1.33813,10.6414 -5.49014,13.88238 -1.01667,0.79359 -1.42627,2.19262 -0.74156,3.28714 0.21521,0.34403 0.43334,0.6864 0.65423,1.02681 0.70274,1.08303 2.15013,1.32527 3.19465,0.56637 l 18.45317,-13.40745 c 1.04452,-0.75889 2.97541,-2.11163 4.11241,-1.63039 0.61946,0.26219 1.11287,0.98039 1.31103,1.25315 -0.006,2.84024 -1.34913,3.78811 -2.39365,4.54701 l -18.46711,13.41779 c -1.04452,0.75889 -1.26711,2.21463 -0.46095,3.22306 0.25471,0.31862 0.51206,0.63495 0.77205,0.94929 0.82284,0.99486 2.2717,1.03901 3.33779,0.31316 4.3711,-2.97607 10.11583,-3.42138 14.94534,-0.96428 1.14954,0.58485 2.85581,1.82471 3.76722,2.7373 3.85675,3.86176 5.19818,9.51594 3.66541,14.62185 -0.37083,1.23527 0.11427,2.58978 1.31774,3.05717 0.3855,0.14972 0.77217,0.29607 1.16014,0.43925 1.21119,0.44701 2.52901,-0.2211 2.92798,-1.44901 l 7.07761,-21.78316 c 0.39897,-1.22791 1.16611,-3.45739 2.36885,-3.73621 0.65514,-0.15187 1.47642,0.13865 1.7973,0.24288 1.66454,2.30113 1.13486,3.85809 0.73587,5.086 l -7.06158,21.73355 c -0.39898,1.22791 0.28076,2.52308 1.53014,2.84841 0.39364,0.1025 0.7881,0.2017 1.18339,0.29766 1.25461,0.30454 2.45921,-0.52411 2.89956,-1.73633 1.79874,-4.95166 6.17419,-8.6658 11.50783,-9.51363 1.27376,-0.20248 3.38279,-0.20248 4.65656,0 5.33364,0.84783 9.70909,4.56197 11.50783,9.51363 0.44035,1.21222 1.64495,2.04087 2.89956,1.73633 0.39529,-0.096 0.78975,-0.19516 1.18338,-0.29766 1.24937,-0.32533 1.92911,-1.6205 1.53013,-2.84841 l -7.06156,-21.73355 c -0.39898,-1.22791 -1.08919,-3.48215 -0.28009,-4.41472 0.44073,-0.50797 1.27643,-0.75567 1.59732,-0.85989 2.69926,0.88315 3.18582,2.45403 3.58479,3.68194 l 7.07757,21.78316 c 0.39896,1.22791 1.71678,1.89602 2.92796,1.44901 0.38797,-0.14318 0.77464,-0.28953 1.16013,-0.43925 1.20347,-0.46739 1.68908,-1.8219 1.31825,-3.05717 -1.53275,-5.10591 -0.19132,-10.7601 3.66539,-14.62185 0.91141,-0.91259 2.61715,-2.15245 3.76668,-2.7373 4.82949,-2.4571 10.57418,-2.01179 14.94526,0.96428 1.06608,0.72585 2.51493,0.6817 3.33776,-0.31316 0.25999,-0.31434 0.51733,-0.63067 0.77204,-0.94929 0.80615,-1.00843 0.58356,-2.46417 -0.46094,-3.22306 l -18.467,-13.41779 c -1.0445,-0.7589 -2.92729,-2.17696 -2.82099,-3.40703 0.0579,-0.67016 0.58782,-1.36124 0.78598,-1.63401 2.70302,-0.87217 4.02027,0.11238 5.06478,0.87127 l 18.45304,13.40745 c 1.04452,0.7589 2.491888,0.51666 3.194622,-0.56637 0.22088,-0.34041 0.43901,-0.68278 0.654217,-1.02681 0.684697,-1.09452 0.27511,-2.49355 -0.741554,-3.28714 -4.151955,-3.24098 -6.331695,-8.5488 -5.490075,-13.88238 0.20104,-1.27401 0.85296,-3.27933 1.43919,-4.42818 2.464274,-4.82928 7.377894,-7.84634 12.666854,-8.00472 1.289144,-0.0386 2.452518,-0.92378 2.555378,-2.21073 0.0327,-0.40934 0.062,-0.81852 0.0879,-1.22836 0.0813,-1.28849 -0.936664,-2.33527 -2.227745,-2.33527 H -111.8937 c -1.29109,0 -3.64767,-0.0404 -4.28446,-1.09813 -0.34692,-0.57622 -0.32453,-1.44682 -0.32453,-1.78388 1.6739,-2.29449 3.3179,-2.27222 4.60899,-2.27222 h 22.965394 c 1.291091,0 2.320925,-1.04699 2.254115,-2.33631 -0.0214,-0.41373 -0.0465,-0.82693 -0.0749,-1.24024 -0.0886,-1.28801 -1.239661,-2.16767 -2.529035,-2.19781 -5.32494,-0.12449 -10.28241,-3.14704 -12.761414,-8.00473 -0.58628,-1.14881 -1.23825,-3.15416 -1.43919,-4.42818 -0.84955,-5.38639 1.38433,-10.74475 5.618232,-13.97543 1.025324,-0.78237 1.438214,-2.16948 0.750857,-3.26233 -0.22043,-0.35048 -0.443907,-0.69923 -0.670237,-1.04594 -0.705734,-1.08107 -2.155788,-1.32164 -3.200312,-0.56275 l -18.56879,13.4912 c -1.04451,0.75889 -2.97539,2.11164 -4.11237,1.6304 -0.61947,-0.2622 -1.11288,-0.9804 -1.31102,-1.25316 0.006,-2.84026 1.34911,-3.78815 2.39362,-4.54704 l 18.5719,-13.49324 c 1.04451,-0.75889 1.26467,-2.2127 0.45577,-3.21892 -0.25967,-0.32305 -0.5219,-0.64414 -0.78702,-0.96274 -0.8258,-0.99239 -2.27168,-1.02919 -3.33207,-0.29507 -4.38193,3.03362 -10.17238,3.50495 -15.0357,1.03095 -1.14956,-0.58479 -2.85526,-1.82472 -3.76668,-2.7373 -3.85469,-3.85972 -5.19685,-9.51032 -3.66797,-14.6141 0.37011,-1.23549 -0.11111,-2.60011 -1.30947,-3.08044 -0.38449,-0.15411 -0.77049,-0.30509 -1.15754,-0.45268 -1.20631,-0.46 -2.52073,0.19733 -2.9197,1.42524 l -7.09462,21.83587 c -0.39897,1.22791 -1.16559,3.45739 -2.36833,3.73621 -0.65514,0.15187 -1.47694,-0.13865 -1.79782,-0.24288 -1.66454,-2.30113 -1.13484,-3.85808 -0.73587,-5.08599 l 7.09618,-21.8395 c 0.39897,-1.22791 -0.2776,-2.53394 -1.52341,-2.8727 -0.40022,-0.10883 -0.80152,-0.21422 -1.20353,-0.31626 -0.31284,-0.0794 -0.62149,-0.0879 -0.91571,-0.0367 z" /><circle
       style="vector-effect:non-scaling-stroke;fill:#ff0000;fill-opacity:0.623529;stroke:#000000;stroke-width:0.237997;stroke-dasharray:none;stroke-opacity:0.623529;-inkscape-stroke:hairline;paint-order:stroke fill markers"
       id="path14-4"
       cx="-159.88483"
       cy="299.55545"
       r="11" /><circle
       style="vector-effect:non-scaling-stroke;fill:none;fill-opacity:0.623529;stroke:#000000;stroke-width:0.108181;stroke-dasharray:none;stroke-opacity:0.623529;-inkscape-stroke:hairline;paint-order:stroke fill markers"
       id="use15-3"
       cx="-159.88483"
       cy="299.55545"
       r="5" /></g></svg>
